<?xml version="1.0" encoding="UTF-8" standalone="no"?>
<svg
   viewBox="0 0 24 24"
   version="1.1"
   id="svg4"
   sodipodi:docname="cpu.svg"
   inkscape:version="1.2.2 (b0a8486541, 2022-12-01)"
   xmlns:inkscape="http://www.inkscape.org/namespaces/inkscape"
   xmlns:sodipodi="http://sodipodi.sourceforge.net/DTD/sodipodi-0.dtd"
   xmlns="http://www.w3.org/2000/svg"
   xmlns:svg="http://www.w3.org/2000/svg">
  <defs
     id="defs8" />
  <sodipodi:namedview
     id="namedview6"
     pagecolor="#ffffff"
     bordercolor="#000000"
     borderopacity="0.25"
     inkscape:showpageshadow="2"
     inkscape:pageopacity="0.0"
     inkscape:pagecheckerboard="0"
     inkscape:deskcolor="#d1d1d1"
     showgrid="false"
     inkscape:zoom="55.625733"
     inkscape:cx="9.914476"
     inkscape:cy="14.813288"
     inkscape:window-width="2880"
     inkscape:window-height="1736"
     inkscape:window-x="0"
     inkscape:window-y="64"
     inkscape:window-maximized="1"
     inkscape:current-layer="svg4" />
  <path
     d="M9,3V5H7A2,2 0 0,0 5,7V9H3V11H5V13H3V15H5V17A2,2 0 0,0 7,19H9V21H11V19H13V21H15V19H17A2,2 0 0,0 19,17V15H21V13H19V11H21V9H19V7A2,2 0 0,0 17,5H15V3H13V5H11V3M8,9H11.5V10.5H8.5V11.25H10.5A1,1 0 0,1 11.5,12.25V14A1,1 0 0,1 10.5,15H8A1,1 0 0,1 7,14V10A1,1 0 0,1 8,9M12.5,9H14V11H15.5V9H17V15H15.5V12.5H12.5M8.5,12.75V13.5H10V12.75"
     id="path2"
     style="fill:#cdd6f4;fill-opacity:1" />
</svg>
